ISO-10303-21;
HEADER;
/* Generated by software containing ST-Developer
 * from STEP Tools, Inc. (www.steptools.com) 
 */
/* OPTION: using custom renumber hook */

FILE_DESCRIPTION(
/* description */ ('STEP AP242 Edition 2',
'CAx-IF Rec.Pracs.---Representation and Presentation of Product Manufa
cturing Information (PMI)---4.0---2014-10-13',
'CAx-IF Rec.Pracs.---3D Tessellated Geometry---0.4---2014-09-14','2;1',
'CAx-IF Rec.Pracs.---User Defined Attributes---1.5---2016-08-15'),
/* implementation_level */ '2;1');

FILE_NAME(
/* name */ 'Part Studio 1',
/* time_stamp */ '2026-09-05T09:00:21Z',
/* author */ (''),
/* organization */ (''),
/* preprocessor_version */ 'ST-DEVELOPER v20',
/* originating_system */ 'ONSHAPE BY PTC INC, 1.220',
/* authorisation */ '  ');

FILE_SCHEMA (('AP242_MANAGED_MODEL_BASED_3D_ENGINEERING_MIM_LF { 1 0 10303 442 3 1 4 }'));
ENDSEC;

DATA;
#10=SHAPE_REPRESENTATION_RELATIONSHIP('','',#606,#11);
#11=ADVANCED_BREP_SHAPE_REPRESENTATION('',(#604),#1089);
#12=TOROIDAL_SURFACE('',#632,0.0345,0.003);
#13=TOROIDAL_SURFACE('',#633,0.0095,0.001);
#14=TOROIDAL_SURFACE('',#698,0.00855,0.001);
#15=TOROIDAL_SURFACE('',#699,0.00855,0.001);
#16=TOROIDAL_SURFACE('',#700,0.00855,0.001);
#17=TOROIDAL_SURFACE('',#701,0.00855,0.001);
#18=TOROIDAL_SURFACE('',#702,0.00855,0.001);
#19=TOROIDAL_SURFACE('',#703,0.00855,0.001);
#20=TOROIDAL_SURFACE('',#704,0.00855,0.001);
#21=TOROIDAL_SURFACE('',#705,0.00855,0.001);
#22=TOROIDAL_SURFACE('',#706,0.00505,0.001);
#23=TOROIDAL_SURFACE('',#707,0.00505,0.001);
#24=TOROIDAL_SURFACE('',#708,0.00505,0.001);
#25=TOROIDAL_SURFACE('',#709,0.00505,0.001);
#26=TOROIDAL_SURFACE('',#710,0.00505,0.001);
#27=TOROIDAL_SURFACE('',#711,0.00505,0.001);
#28=TOROIDAL_SURFACE('',#712,0.00505,0.001);
#29=TOROIDAL_SURFACE('',#713,0.00505,0.001);
#30=PLANE('',#611);
#31=PLANE('',#621);
#32=PLANE('',#637);
#33=PLANE('',#641);
#34=PLANE('',#645);
#35=PLANE('',#649);
#36=PLANE('',#653);
#37=PLANE('',#657);
#38=PLANE('',#661);
#39=PLANE('',#665);
#40=PLANE('',#669);
#41=PLANE('',#673);
#42=PLANE('',#677);
#43=PLANE('',#681);
#44=PLANE('',#685);
#45=PLANE('',#689);
#46=PLANE('',#693);
#47=PLANE('',#697);
#48=ORIENTED_EDGE('',*,*,#154,.T.);
#49=ORIENTED_EDGE('',*,*,#155,.T.);
#50=ORIENTED_EDGE('',*,*,#156,.T.);
#51=ORIENTED_EDGE('',*,*,#157,.T.);
#52=ORIENTED_EDGE('',*,*,#158,.T.);
#53=ORIENTED_EDGE('',*,*,#159,.T.);
#54=ORIENTED_EDGE('',*,*,#160,.T.);
#55=ORIENTED_EDGE('',*,*,#161,.T.);
#56=ORIENTED_EDGE('',*,*,#162,.T.);
#57=ORIENTED_EDGE('',*,*,#163,.T.);
#58=ORIENTED_EDGE('',*,*,#164,.T.);
#59=ORIENTED_EDGE('',*,*,#155,.F.);
#60=ORIENTED_EDGE('',*,*,#165,.T.);
#61=ORIENTED_EDGE('',*,*,#166,.T.);
#62=ORIENTED_EDGE('',*,*,#167,.T.);
#63=ORIENTED_EDGE('',*,*,#168,.T.);
#64=ORIENTED_EDGE('',*,*,#169,.T.);
#65=ORIENTED_EDGE('',*,*,#170,.T.);
#66=ORIENTED_EDGE('',*,*,#171,.T.);
#67=ORIENTED_EDGE('',*,*,#172,.T.);
#68=ORIENTED_EDGE('',*,*,#173,.T.);
#69=ORIENTED_EDGE('',*,*,#174,.T.);
#70=ORIENTED_EDGE('',*,*,#174,.F.);
#71=ORIENTED_EDGE('',*,*,#164,.F.);
#72=ORIENTED_EDGE('',*,*,#154,.F.);
#73=ORIENTED_EDGE('',*,*,#173,.F.);
#74=ORIENTED_EDGE('',*,*,#175,.T.);
#75=ORIENTED_EDGE('',*,*,#176,.F.);
#76=ORIENTED_EDGE('',*,*,#176,.T.);
#77=ORIENTED_EDGE('',*,*,#177,.T.);
#78=ORIENTED_EDGE('',*,*,#178,.F.);
#79=ORIENTED_EDGE('',*,*,#178,.T.);
#80=ORIENTED_EDGE('',*,*,#179,.T.);
#81=ORIENTED_EDGE('',*,*,#180,.F.);
#82=ORIENTED_EDGE('',*,*,#180,.T.);
#83=ORIENTED_EDGE('',*,*,#181,.T.);
#84=ORIENTED_EDGE('',*,*,#182,.F.);
#85=ORIENTED_EDGE('',*,*,#182,.T.);
#86=ORIENTED_EDGE('',*,*,#183,.T.);
#87=ORIENTED_EDGE('',*,*,#184,.F.);
#88=ORIENTED_EDGE('',*,*,#184,.T.);
#89=ORIENTED_EDGE('',*,*,#185,.T.);
#90=ORIENTED_EDGE('',*,*,#186,.F.);
#91=ORIENTED_EDGE('',*,*,#186,.T.);
#92=ORIENTED_EDGE('',*,*,#187,.T.);
#93=ORIENTED_EDGE('',*,*,#188,.F.);
#94=ORIENTED_EDGE('',*,*,#188,.T.);
#95=ORIENTED_EDGE('',*,*,#189,.T.);
#96=ORIENTED_EDGE('',*,*,#190,.F.);
#97=ORIENTED_EDGE('',*,*,#190,.T.);
#98=ORIENTED_EDGE('',*,*,#191,.T.);
#99=ORIENTED_EDGE('',*,*,#192,.T.);
#100=ORIENTED_EDGE('',*,*,#192,.F.);
#101=ORIENTED_EDGE('',*,*,#193,.T.);
#102=ORIENTED_EDGE('',*,*,#194,.T.);
#103=ORIENTED_EDGE('',*,*,#194,.F.);
#104=ORIENTED_EDGE('',*,*,#195,.T.);
#105=ORIENTED_EDGE('',*,*,#196,.T.);
#106=ORIENTED_EDGE('',*,*,#196,.F.);
#107=ORIENTED_EDGE('',*,*,#197,.T.);
#108=ORIENTED_EDGE('',*,*,#198,.T.);
#109=ORIENTED_EDGE('',*,*,#198,.F.);
#110=ORIENTED_EDGE('',*,*,#199,.T.);
#111=ORIENTED_EDGE('',*,*,#200,.T.);
#112=ORIENTED_EDGE('',*,*,#200,.F.);
#113=ORIENTED_EDGE('',*,*,#201,.T.);
#114=ORIENTED_EDGE('',*,*,#202,.T.);
#115=ORIENTED_EDGE('',*,*,#202,.F.);
#116=ORIENTED_EDGE('',*,*,#203,.T.);
#117=ORIENTED_EDGE('',*,*,#204,.T.);
#118=ORIENTED_EDGE('',*,*,#204,.F.);
#119=ORIENTED_EDGE('',*,*,#205,.T.);
#120=ORIENTED_EDGE('',*,*,#206,.T.);
#121=ORIENTED_EDGE('',*,*,#206,.F.);
#122=ORIENTED_EDGE('',*,*,#156,.F.);
#123=ORIENTED_EDGE('',*,*,#175,.F.);
#124=ORIENTED_EDGE('',*,*,#157,.F.);
#125=ORIENTED_EDGE('',*,*,#177,.F.);
#126=ORIENTED_EDGE('',*,*,#158,.F.);
#127=ORIENTED_EDGE('',*,*,#179,.F.);
#128=ORIENTED_EDGE('',*,*,#159,.F.);
#129=ORIENTED_EDGE('',*,*,#181,.F.);
#130=ORIENTED_EDGE('',*,*,#160,.F.);
#131=ORIENTED_EDGE('',*,*,#183,.F.);
#132=ORIENTED_EDGE('',*,*,#161,.F.);
#133=ORIENTED_EDGE('',*,*,#185,.F.);
#134=ORIENTED_EDGE('',*,*,#162,.F.);
#135=ORIENTED_EDGE('',*,*,#187,.F.);
#136=ORIENTED_EDGE('',*,*,#163,.F.);
#137=ORIENTED_EDGE('',*,*,#189,.F.);
#138=ORIENTED_EDGE('',*,*,#191,.F.);
#139=ORIENTED_EDGE('',*,*,#165,.F.);
#140=ORIENTED_EDGE('',*,*,#205,.F.);
#141=ORIENTED_EDGE('',*,*,#166,.F.);
#142=ORIENTED_EDGE('',*,*,#203,.F.);
#143=ORIENTED_EDGE('',*,*,#167,.F.);
#144=ORIENTED_EDGE('',*,*,#201,.F.);
#145=ORIENTED_EDGE('',*,*,#168,.F.);
#146=ORIENTED_EDGE('',*,*,#199,.F.);
#147=ORIENTED_EDGE('',*,*,#169,.F.);
#148=ORIENTED_EDGE('',*,*,#197,.F.);
#149=ORIENTED_EDGE('',*,*,#170,.F.);
#150=ORIENTED_EDGE('',*,*,#195,.F.);
#151=ORIENTED_EDGE('',*,*,#171,.F.);
#152=ORIENTED_EDGE('',*,*,#193,.F.);
#153=ORIENTED_EDGE('',*,*,#172,.F.);
#154=EDGE_CURVE('',#207,#207,#260,.F.);
#155=EDGE_CURVE('',#208,#208,#261,.T.);
#156=EDGE_CURVE('',#209,#209,#262,.F.);
#157=EDGE_CURVE('',#210,#210,#263,.F.);
#158=EDGE_CURVE('',#211,#211,#264,.F.);
#159=EDGE_CURVE('',#212,#212,#265,.F.);
#160=EDGE_CURVE('',#213,#213,#266,.F.);
#161=EDGE_CURVE('',#214,#214,#267,.F.);
#162=EDGE_CURVE('',#215,#215,#268,.F.);
#163=EDGE_CURVE('',#216,#216,#269,.F.);
#164=EDGE_CURVE('',#217,#217,#270,.T.);
#165=EDGE_CURVE('',#218,#218,#271,.T.);
#166=EDGE_CURVE('',#219,#219,#272,.T.);
#167=EDGE_CURVE('',#220,#220,#273,.T.);
#168=EDGE_CURVE('',#221,#221,#274,.T.);
#169=EDGE_CURVE('',#222,#222,#275,.T.);
#170=EDGE_CURVE('',#223,#223,#276,.T.);
#171=EDGE_CURVE('',#224,#224,#277,.T.);
#172=EDGE_CURVE('',#225,#225,#278,.T.);
#173=EDGE_CURVE('',#226,#226,#279,.T.);
#174=EDGE_CURVE('',#227,#227,#280,.F.);
#175=EDGE_CURVE('',#228,#228,#281,.T.);
#176=EDGE_CURVE('',#229,#229,#282,.T.);
#177=EDGE_CURVE('',#230,#230,#283,.T.);
#178=EDGE_CURVE('',#231,#231,#284,.T.);
#179=EDGE_CURVE('',#232,#232,#285,.T.);
#180=EDGE_CURVE('',#233,#233,#286,.T.);
#181=EDGE_CURVE('',#234,#234,#287,.T.);
#182=EDGE_CURVE('',#235,#235,#288,.T.);
#183=EDGE_CURVE('',#236,#236,#289,.T.);
#184=EDGE_CURVE('',#237,#237,#290,.T.);
#185=EDGE_CURVE('',#238,#238,#291,.T.);
#186=EDGE_CURVE('',#239,#239,#292,.T.);
#187=EDGE_CURVE('',#240,#240,#293,.T.);
#188=EDGE_CURVE('',#241,#241,#294,.T.);
#189=EDGE_CURVE('',#242,#242,#295,.T.);
#190=EDGE_CURVE('',#243,#243,#296,.T.);
#191=EDGE_CURVE('',#244,#244,#297,.F.);
#192=EDGE_CURVE('',#245,#245,#298,.T.);
#193=EDGE_CURVE('',#246,#246,#299,.F.);
#194=EDGE_CURVE('',#247,#247,#300,.T.);
#195=EDGE_CURVE('',#248,#248,#301,.F.);
#196=EDGE_CURVE('',#249,#249,#302,.T.);
#197=EDGE_CURVE('',#250,#250,#303,.F.);
#198=EDGE_CURVE('',#251,#251,#304,.T.);
#199=EDGE_CURVE('',#252,#252,#305,.F.);
#200=EDGE_CURVE('',#253,#253,#306,.T.);
#201=EDGE_CURVE('',#254,#254,#307,.F.);
#202=EDGE_CURVE('',#255,#255,#308,.T.);
#203=EDGE_CURVE('',#256,#256,#309,.F.);
#204=EDGE_CURVE('',#257,#257,#310,.T.);
#205=EDGE_CURVE('',#258,#258,#311,.F.);
#206=EDGE_CURVE('',#259,#259,#312,.T.);
#207=VERTEX_POINT('',#931);
#208=VERTEX_POINT('',#933);
#209=VERTEX_POINT('',#936);
#210=VERTEX_POINT('',#938);
#211=VERTEX_POINT('',#940);
#212=VERTEX_POINT('',#942);
#213=VERTEX_POINT('',#944);
#214=VERTEX_POINT('',#946);
#215=VERTEX_POINT('',#948);
#216=VERTEX_POINT('',#950);
#217=VERTEX_POINT('',#952);
#218=VERTEX_POINT('',#955);
#219=VERTEX_POINT('',#957);
#220=VERTEX_POINT('',#959);
#221=VERTEX_POINT('',#961);
#222=VERTEX_POINT('',#963);
#223=VERTEX_POINT('',#965);
#224=VERTEX_POINT('',#967);
#225=VERTEX_POINT('',#969);
#226=VERTEX_POINT('',#971);
#227=VERTEX_POINT('',#973);
#228=VERTEX_POINT('',#978);
#229=VERTEX_POINT('',#980);
#230=VERTEX_POINT('',#984);
#231=VERTEX_POINT('',#986);
#232=VERTEX_POINT('',#990);
#233=VERTEX_POINT('',#992);
#234=VERTEX_POINT('',#996);
#235=VERTEX_POINT('',#998);
#236=VERTEX_POINT('',#1002);
#237=VERTEX_POINT('',#1004);
#238=VERTEX_POINT('',#1008);
#239=VERTEX_POINT('',#1010);
#240=VERTEX_POINT('',#1014);
#241=VERTEX_POINT('',#1016);
#242=VERTEX_POINT('',#1020);
#243=VERTEX_POINT('',#1022);
#244=VERTEX_POINT('',#1026);
#245=VERTEX_POINT('',#1028);
#246=VERTEX_POINT('',#1032);
#247=VERTEX_POINT('',#1034);
#248=VERTEX_POINT('',#1038);
#249=VERTEX_POINT('',#1040);
#250=VERTEX_POINT('',#1044);
#251=VERTEX_POINT('',#1046);
#252=VERTEX_POINT('',#1050);
#253=VERTEX_POINT('',#1052);
#254=VERTEX_POINT('',#1056);
#255=VERTEX_POINT('',#1058);
#256=VERTEX_POINT('',#1062);
#257=VERTEX_POINT('',#1064);
#258=VERTEX_POINT('',#1068);
#259=VERTEX_POINT('',#1070);
#260=CIRCLE('',#609,0.0085);
#261=CIRCLE('',#610,0.0085);
#262=CIRCLE('',#612,0.00855);
#263=CIRCLE('',#613,0.00855);
#264=CIRCLE('',#614,0.00855);
#265=CIRCLE('',#615,0.00855);
#266=CIRCLE('',#616,0.00855);
#267=CIRCLE('',#617,0.00855);
#268=CIRCLE('',#618,0.00855);
#269=CIRCLE('',#619,0.00855);
#270=CIRCLE('',#620,0.0345);
#271=CIRCLE('',#622,0.00505);
#272=CIRCLE('',#623,0.00505);
#273=CIRCLE('',#624,0.00505);
#274=CIRCLE('',#625,0.00505);
#275=CIRCLE('',#626,0.00505);
#276=CIRCLE('',#627,0.00505);
#277=CIRCLE('',#628,0.00505);
#278=CIRCLE('',#629,0.00505);
#279=CIRCLE('',#630,0.0095);
#280=CIRCLE('',#631,0.0345);
#281=CIRCLE('',#635,0.00755);
#282=CIRCLE('',#636,0.00755);
#283=CIRCLE('',#639,0.00755);
#284=CIRCLE('',#640,0.00755);
#285=CIRCLE('',#643,0.00755);
#286=CIRCLE('',#644,0.00755);
#287=CIRCLE('',#647,0.00755);
#288=CIRCLE('',#648,0.00755);
#289=CIRCLE('',#651,0.00755);
#290=CIRCLE('',#652,0.00755);
#291=CIRCLE('',#655,0.00755);
#292=CIRCLE('',#656,0.00755);
#293=CIRCLE('',#659,0.00755);
#294=CIRCLE('',#660,0.00755);
#295=CIRCLE('',#663,0.00755);
#296=CIRCLE('',#664,0.00755);
#297=CIRCLE('',#667,0.00405);
#298=CIRCLE('',#668,0.00405);
#299=CIRCLE('',#671,0.00405);
#300=CIRCLE('',#672,0.00405);
#301=CIRCLE('',#675,0.00405);
#302=CIRCLE('',#676,0.00405);
#303=CIRCLE('',#679,0.00405);
#304=CIRCLE('',#680,0.00405);
#305=CIRCLE('',#683,0.00405);
#306=CIRCLE('',#684,0.00405);
#307=CIRCLE('',#687,0.00405);
#308=CIRCLE('',#688,0.00405);
#309=CIRCLE('',#691,0.00405);
#310=CIRCLE('',#692,0.00405);
#311=CIRCLE('',#695,0.00405);
#312=CIRCLE('',#696,0.00405);
#313=EDGE_LOOP('',(#48));
#314=EDGE_LOOP('',(#49));
#315=EDGE_LOOP('',(#50));
#316=EDGE_LOOP('',(#51));
#317=EDGE_LOOP('',(#52));
#318=EDGE_LOOP('',(#53));
#319=EDGE_LOOP('',(#54));
#320=EDGE_LOOP('',(#55));
#321=EDGE_LOOP('',(#56));
#322=EDGE_LOOP('',(#57));
#323=EDGE_LOOP('',(#58));
#324=EDGE_LOOP('',(#59));
#325=EDGE_LOOP('',(#60));
#326=EDGE_LOOP('',(#61));
#327=EDGE_LOOP('',(#62));
#328=EDGE_LOOP('',(#63));
#329=EDGE_LOOP('',(#64));
#330=EDGE_LOOP('',(#65));
#331=EDGE_LOOP('',(#66));
#332=EDGE_LOOP('',(#67));
#333=EDGE_LOOP('',(#68));
#334=EDGE_LOOP('',(#69));
#335=EDGE_LOOP('',(#70));
#336=EDGE_LOOP('',(#71));
#337=EDGE_LOOP('',(#72));
#338=EDGE_LOOP('',(#73));
#339=EDGE_LOOP('',(#74));
#340=EDGE_LOOP('',(#75));
#341=EDGE_LOOP('',(#76));
#342=EDGE_LOOP('',(#77));
#343=EDGE_LOOP('',(#78));
#344=EDGE_LOOP('',(#79));
#345=EDGE_LOOP('',(#80));
#346=EDGE_LOOP('',(#81));
#347=EDGE_LOOP('',(#82));
#348=EDGE_LOOP('',(#83));
#349=EDGE_LOOP('',(#84));
#350=EDGE_LOOP('',(#85));
#351=EDGE_LOOP('',(#86));
#352=EDGE_LOOP('',(#87));
#353=EDGE_LOOP('',(#88));
#354=EDGE_LOOP('',(#89));
#355=EDGE_LOOP('',(#90));
#356=EDGE_LOOP('',(#91));
#357=EDGE_LOOP('',(#92));
#358=EDGE_LOOP('',(#93));
#359=EDGE_LOOP('',(#94));
#360=EDGE_LOOP('',(#95));
#361=EDGE_LOOP('',(#96));
#362=EDGE_LOOP('',(#97));
#363=EDGE_LOOP('',(#98));
#364=EDGE_LOOP('',(#99));
#365=EDGE_LOOP('',(#100));
#366=EDGE_LOOP('',(#101));
#367=EDGE_LOOP('',(#102));
#368=EDGE_LOOP('',(#103));
#369=EDGE_LOOP('',(#104));
#370=EDGE_LOOP('',(#105));
#371=EDGE_LOOP('',(#106));
#372=EDGE_LOOP('',(#107));
#373=EDGE_LOOP('',(#108));
#374=EDGE_LOOP('',(#109));
#375=EDGE_LOOP('',(#110));
#376=EDGE_LOOP('',(#111));
#377=EDGE_LOOP('',(#112));
#378=EDGE_LOOP('',(#113));
#379=EDGE_LOOP('',(#114));
#380=EDGE_LOOP('',(#115));
#381=EDGE_LOOP('',(#116));
#382=EDGE_LOOP('',(#117));
#383=EDGE_LOOP('',(#118));
#384=EDGE_LOOP('',(#119));
#385=EDGE_LOOP('',(#120));
#386=EDGE_LOOP('',(#121));
#387=EDGE_LOOP('',(#122));
#388=EDGE_LOOP('',(#123));
#389=EDGE_LOOP('',(#124));
#390=EDGE_LOOP('',(#125));
#391=EDGE_LOOP('',(#126));
#392=EDGE_LOOP('',(#127));
#393=EDGE_LOOP('',(#128));
#394=EDGE_LOOP('',(#129));
#395=EDGE_LOOP('',(#130));
#396=EDGE_LOOP('',(#131));
#397=EDGE_LOOP('',(#132));
#398=EDGE_LOOP('',(#133));
#399=EDGE_LOOP('',(#134));
#400=EDGE_LOOP('',(#135));
#401=EDGE_LOOP('',(#136));
#402=EDGE_LOOP('',(#137));
#403=EDGE_LOOP('',(#138));
#404=EDGE_LOOP('',(#139));
#405=EDGE_LOOP('',(#140));
#406=EDGE_LOOP('',(#141));
#407=EDGE_LOOP('',(#142));
#408=EDGE_LOOP('',(#143));
#409=EDGE_LOOP('',(#144));
#410=EDGE_LOOP('',(#145));
#411=EDGE_LOOP('',(#146));
#412=EDGE_LOOP('',(#147));
#413=EDGE_LOOP('',(#148));
#414=EDGE_LOOP('',(#149));
#415=EDGE_LOOP('',(#150));
#416=EDGE_LOOP('',(#151));
#417=EDGE_LOOP('',(#152));
#418=EDGE_LOOP('',(#153));
#419=FACE_BOUND('',#313,.T.);
#420=FACE_BOUND('',#314,.T.);
#421=FACE_BOUND('',#315,.T.);
#422=FACE_BOUND('',#316,.T.);
#423=FACE_BOUND('',#317,.T.);
#424=FACE_BOUND('',#318,.T.);
#425=FACE_BOUND('',#319,.T.);
#426=FACE_BOUND('',#320,.T.);
#427=FACE_BOUND('',#321,.T.);
#428=FACE_BOUND('',#322,.T.);
#429=FACE_BOUND('',#323,.T.);
#430=FACE_BOUND('',#324,.T.);
#431=FACE_BOUND('',#325,.T.);
#432=FACE_BOUND('',#326,.T.);
#433=FACE_BOUND('',#327,.T.);
#434=FACE_BOUND('',#328,.T.);
#435=FACE_BOUND('',#329,.T.);
#436=FACE_BOUND('',#330,.T.);
#437=FACE_BOUND('',#331,.T.);
#438=FACE_BOUND('',#332,.T.);
#439=FACE_BOUND('',#333,.T.);
#440=FACE_BOUND('',#334,.T.);
#441=FACE_BOUND('',#335,.T.);
#442=FACE_BOUND('',#336,.T.);
#443=FACE_BOUND('',#337,.T.);
#444=FACE_BOUND('',#338,.T.);
#445=FACE_BOUND('',#339,.T.);
#446=FACE_BOUND('',#340,.T.);
#447=FACE_BOUND('',#341,.T.);
#448=FACE_BOUND('',#342,.T.);
#449=FACE_BOUND('',#343,.T.);
#450=FACE_BOUND('',#344,.T.);
#451=FACE_BOUND('',#345,.T.);
#452=FACE_BOUND('',#346,.T.);
#453=FACE_BOUND('',#347,.T.);
#454=FACE_BOUND('',#348,.T.);
#455=FACE_BOUND('',#349,.T.);
#456=FACE_BOUND('',#350,.T.);
#457=FACE_BOUND('',#351,.T.);
#458=FACE_BOUND('',#352,.T.);
#459=FACE_BOUND('',#353,.T.);
#460=FACE_BOUND('',#354,.T.);
#461=FACE_BOUND('',#355,.T.);
#462=FACE_BOUND('',#356,.T.);
#463=FACE_BOUND('',#357,.T.);
#464=FACE_BOUND('',#358,.T.);
#465=FACE_BOUND('',#359,.T.);
#466=FACE_BOUND('',#360,.T.);
#467=FACE_BOUND('',#361,.T.);
#468=FACE_BOUND('',#362,.T.);
#469=FACE_BOUND('',#363,.T.);
#470=FACE_BOUND('',#364,.T.);
#471=FACE_BOUND('',#365,.T.);
#472=FACE_BOUND('',#366,.T.);
#473=FACE_BOUND('',#367,.T.);
#474=FACE_BOUND('',#368,.T.);
#475=FACE_BOUND('',#369,.T.);
#476=FACE_BOUND('',#370,.T.);
#477=FACE_BOUND('',#371,.T.);
#478=FACE_BOUND('',#372,.T.);
#479=FACE_BOUND('',#373,.T.);
#480=FACE_BOUND('',#374,.T.);
#481=FACE_BOUND('',#375,.T.);
#482=FACE_BOUND('',#376,.T.);
#483=FACE_BOUND('',#377,.T.);
#484=FACE_BOUND('',#378,.T.);
#485=FACE_BOUND('',#379,.T.);
#486=FACE_BOUND('',#380,.T.);
#487=FACE_BOUND('',#381,.T.);
#488=FACE_BOUND('',#382,.T.);
#489=FACE_BOUND('',#383,.T.);
#490=FACE_BOUND('',#384,.T.);
#491=FACE_BOUND('',#385,.T.);
#492=FACE_BOUND('',#386,.T.);
#493=FACE_BOUND('',#387,.T.);
#494=FACE_BOUND('',#388,.T.);
#495=FACE_BOUND('',#389,.T.);
#496=FACE_BOUND('',#390,.T.);
#497=FACE_BOUND('',#391,.T.);
#498=FACE_BOUND('',#392,.T.);
#499=FACE_BOUND('',#393,.T.);
#500=FACE_BOUND('',#394,.T.);
#501=FACE_BOUND('',#395,.T.);
#502=FACE_BOUND('',#396,.T.);
#503=FACE_BOUND('',#397,.T.);
#504=FACE_BOUND('',#398,.T.);
#505=FACE_BOUND('',#399,.T.);
#506=FACE_BOUND('',#400,.T.);
#507=FACE_BOUND('',#401,.T.);
#508=FACE_BOUND('',#402,.T.);
#509=FACE_BOUND('',#403,.T.);
#510=FACE_BOUND('',#404,.T.);
#511=FACE_BOUND('',#405,.T.);
#512=FACE_BOUND('',#406,.T.);
#513=FACE_BOUND('',#407,.T.);
#514=FACE_BOUND('',#408,.T.);
#515=FACE_BOUND('',#409,.T.);
#516=FACE_BOUND('',#410,.T.);
#517=FACE_BOUND('',#411,.T.);
#518=FACE_BOUND('',#412,.T.);
#519=FACE_BOUND('',#413,.T.);
#520=FACE_BOUND('',#414,.T.);
#521=FACE_BOUND('',#415,.T.);
#522=FACE_BOUND('',#416,.T.);
#523=FACE_BOUND('',#417,.T.);
#524=FACE_BOUND('',#418,.T.);
#525=CYLINDRICAL_SURFACE('',#608,0.0085);
#526=CYLINDRICAL_SURFACE('',#634,0.00755);
#527=CYLINDRICAL_SURFACE('',#638,0.00755);
#528=CYLINDRICAL_SURFACE('',#642,0.00755);
#529=CYLINDRICAL_SURFACE('',#646,0.00755);
#530=CYLINDRICAL_SURFACE('',#650,0.00755);
#531=CYLINDRICAL_SURFACE('',#654,0.00755);
#532=CYLINDRICAL_SURFACE('',#658,0.00755);
#533=CYLINDRICAL_SURFACE('',#662,0.00755);
#534=CYLINDRICAL_SURFACE('',#666,0.00405);
#535=CYLINDRICAL_SURFACE('',#670,0.00405);
#536=CYLINDRICAL_SURFACE('',#674,0.00405);
#537=CYLINDRICAL_SURFACE('',#678,0.00405);
#538=CYLINDRICAL_SURFACE('',#682,0.00405);
#539=CYLINDRICAL_SURFACE('',#686,0.00405);
#540=CYLINDRICAL_SURFACE('',#690,0.00405);
#541=CYLINDRICAL_SURFACE('',#694,0.00405);
#542=ADVANCED_FACE('',(#419,#420),#525,.F.);
#543=ADVANCED_FACE('',(#421,#422,#423,#424,#425,#426,#427,#428,#429,#430),
#30,.T.);
#544=ADVANCED_FACE('',(#431,#432,#433,#434,#435,#436,#437,#438,#439,#440),
#31,.F.);
#545=ADVANCED_FACE('',(#441,#442),#12,.T.);
#546=ADVANCED_FACE('',(#443,#444),#13,.T.);
#547=ADVANCED_FACE('',(#445,#446),#526,.F.);
#548=ADVANCED_FACE('',(#447),#32,.T.);
#549=ADVANCED_FACE('',(#448,#449),#527,.F.);
#550=ADVANCED_FACE('',(#450),#33,.T.);
#551=ADVANCED_FACE('',(#451,#452),#528,.F.);
#552=ADVANCED_FACE('',(#453),#34,.T.);
#553=ADVANCED_FACE('',(#454,#455),#529,.F.);
#554=ADVANCED_FACE('',(#456),#35,.T.);
#555=ADVANCED_FACE('',(#457,#458),#530,.F.);
#556=ADVANCED_FACE('',(#459),#36,.T.);
#557=ADVANCED_FACE('',(#460,#461),#531,.F.);
#558=ADVANCED_FACE('',(#462),#37,.T.);
#559=ADVANCED_FACE('',(#463,#464),#532,.F.);
#560=ADVANCED_FACE('',(#465),#38,.T.);
#561=ADVANCED_FACE('',(#466,#467),#533,.F.);
#562=ADVANCED_FACE('',(#468),#39,.T.);
#563=ADVANCED_FACE('',(#469,#470),#534,.F.);
#564=ADVANCED_FACE('',(#471),#40,.F.);
#565=ADVANCED_FACE('',(#472,#473),#535,.F.);
#566=ADVANCED_FACE('',(#474),#41,.F.);
#567=ADVANCED_FACE('',(#475,#476),#536,.F.);
#568=ADVANCED_FACE('',(#477),#42,.F.);
#569=ADVANCED_FACE('',(#478,#479),#537,.F.);
#570=ADVANCED_FACE('',(#480),#43,.F.);
#571=ADVANCED_FACE('',(#481,#482),#538,.F.);
#572=ADVANCED_FACE('',(#483),#44,.F.);
#573=ADVANCED_FACE('',(#484,#485),#539,.F.);
#574=ADVANCED_FACE('',(#486),#45,.F.);
#575=ADVANCED_FACE('',(#487,#488),#540,.F.);
#576=ADVANCED_FACE('',(#489),#46,.F.);
#577=ADVANCED_FACE('',(#490,#491),#541,.F.);
#578=ADVANCED_FACE('',(#492),#47,.F.);
#579=ADVANCED_FACE('',(#493,#494),#14,.T.);
#580=ADVANCED_FACE('',(#495,#496),#15,.T.);
#581=ADVANCED_FACE('',(#497,#498),#16,.T.);
#582=ADVANCED_FACE('',(#499,#500),#17,.T.);
#583=ADVANCED_FACE('',(#501,#502),#18,.T.);
#584=ADVANCED_FACE('',(#503,#504),#19,.T.);
#585=ADVANCED_FACE('',(#505,#506),#20,.T.);
#586=ADVANCED_FACE('',(#507,#508),#21,.T.);
#587=ADVANCED_FACE('',(#509,#510),#22,.T.);
#588=ADVANCED_FACE('',(#511,#512),#23,.T.);
#589=ADVANCED_FACE('',(#513,#514),#24,.T.);
#590=ADVANCED_FACE('',(#515,#516),#25,.T.);
#591=ADVANCED_FACE('',(#517,#518),#26,.T.);
#592=ADVANCED_FACE('',(#519,#520),#27,.T.);
#593=ADVANCED_FACE('',(#521,#522),#28,.T.);
#594=ADVANCED_FACE('',(#523,#524),#29,.T.);
#595=CLOSED_SHELL('',(#542,#543,#544,#545,#546,#547,#548,#549,#550,#551,
#552,#553,#554,#555,#556,#557,#558,#559,#560,#561,#562,#563,#564,#565,#566,
#567,#568,#569,#570,#571,#572,#573,#574,#575,#576,#577,#578,#579,#580,#581,
#582,#583,#584,#585,#586,#587,#588,#589,#590,#591,#592,#593,#594));
#596=STYLED_ITEM('',(#597),#604);
#597=PRESENTATION_STYLE_ASSIGNMENT((#598));
#598=SURFACE_STYLE_USAGE(.BOTH.,#599);
#599=SURFACE_SIDE_STYLE('',(#600));
#600=SURFACE_STYLE_FILL_AREA(#601);
#601=FILL_AREA_STYLE('',(#602));
#602=FILL_AREA_STYLE_COLOUR('',#603);
#603=COLOUR_RGB('',0.615686274509804,0.811764705882353,0.929411764705882);
#604=MANIFOLD_SOLID_BREP('Part 1',#595);
#605=SHAPE_DEFINITION_REPRESENTATION(#1094,#606);
#606=SHAPE_REPRESENTATION('Part 1',(#607),#1089);
#607=AXIS2_PLACEMENT_3D('',#928,#714,#715);
#608=AXIS2_PLACEMENT_3D('',#929,#716,#717);
#609=AXIS2_PLACEMENT_3D('',#930,#718,#719);
#610=AXIS2_PLACEMENT_3D('',#932,#720,#721);
#611=AXIS2_PLACEMENT_3D('',#934,#722,#723);
#612=AXIS2_PLACEMENT_3D('',#935,#724,#725);
#613=AXIS2_PLACEMENT_3D('',#937,#726,#727);
#614=AXIS2_PLACEMENT_3D('',#939,#728,#729);
#615=AXIS2_PLACEMENT_3D('',#941,#730,#731);
#616=AXIS2_PLACEMENT_3D('',#943,#732,#733);
#617=AXIS2_PLACEMENT_3D('',#945,#734,#735);
#618=AXIS2_PLACEMENT_3D('',#947,#736,#737);
#619=AXIS2_PLACEMENT_3D('',#949,#738,#739);
#620=AXIS2_PLACEMENT_3D('',#951,#740,#741);
#621=AXIS2_PLACEMENT_3D('',#953,#742,#743);
#622=AXIS2_PLACEMENT_3D('',#954,#744,#745);
#623=AXIS2_PLACEMENT_3D('',#956,#746,#747);
#624=AXIS2_PLACEMENT_3D('',#958,#748,#749);
#625=AXIS2_PLACEMENT_3D('',#960,#750,#751);
#626=AXIS2_PLACEMENT_3D('',#962,#752,#753);
#627=AXIS2_PLACEMENT_3D('',#964,#754,#755);
#628=AXIS2_PLACEMENT_3D('',#966,#756,#757);
#629=AXIS2_PLACEMENT_3D('',#968,#758,#759);
#630=AXIS2_PLACEMENT_3D('',#970,#760,#761);
#631=AXIS2_PLACEMENT_3D('',#972,#762,#763);
#632=AXIS2_PLACEMENT_3D('',#974,#764,#765);
#633=AXIS2_PLACEMENT_3D('',#975,#766,#767);
#634=AXIS2_PLACEMENT_3D('',#976,#768,#769);
#635=AXIS2_PLACEMENT_3D('',#977,#770,#771);
#636=AXIS2_PLACEMENT_3D('',#979,#772,#773);
#637=AXIS2_PLACEMENT_3D('',#981,#774,#775);
#638=AXIS2_PLACEMENT_3D('',#982,#776,#777);
#639=AXIS2_PLACEMENT_3D('',#983,#778,#779);
#640=AXIS2_PLACEMENT_3D('',#985,#780,#781);
#641=AXIS2_PLACEMENT_3D('',#987,#782,#783);
#642=AXIS2_PLACEMENT_3D('',#988,#784,#785);
#643=AXIS2_PLACEMENT_3D('',#989,#786,#787);
#644=AXIS2_PLACEMENT_3D('',#991,#788,#789);
#645=AXIS2_PLACEMENT_3D('',#993,#790,#791);
#646=AXIS2_PLACEMENT_3D('',#994,#792,#793);
#647=AXIS2_PLACEMENT_3D('',#995,#794,#795);
#648=AXIS2_PLACEMENT_3D('',#997,#796,#797);
#649=AXIS2_PLACEMENT_3D('',#999,#798,#799);
#650=AXIS2_PLACEMENT_3D('',#1000,#800,#801);
#651=AXIS2_PLACEMENT_3D('',#1001,#802,#803);
#652=AXIS2_PLACEMENT_3D('',#1003,#804,#805);
#653=AXIS2_PLACEMENT_3D('',#1005,#806,#807);
#654=AXIS2_PLACEMENT_3D('',#1006,#808,#809);
#655=AXIS2_PLACEMENT_3D('',#1007,#810,#811);
#656=AXIS2_PLACEMENT_3D('',#1009,#812,#813);
#657=AXIS2_PLACEMENT_3D('',#1011,#814,#815);
#658=AXIS2_PLACEMENT_3D('',#1012,#816,#817);
#659=AXIS2_PLACEMENT_3D('',#1013,#818,#819);
#660=AXIS2_PLACEMENT_3D('',#1015,#820,#821);
#661=AXIS2_PLACEMENT_3D('',#1017,#822,#823);
#662=AXIS2_PLACEMENT_3D('',#1018,#824,#825);
#663=AXIS2_PLACEMENT_3D('',#1019,#826,#827);
#664=AXIS2_PLACEMENT_3D('',#1021,#828,#829);
#665=AXIS2_PLACEMENT_3D('',#1023,#830,#831);
#666=AXIS2_PLACEMENT_3D('',#1024,#832,#833);
#667=AXIS2_PLACEMENT_3D('',#1025,#834,#835);
#668=AXIS2_PLACEMENT_3D('',#1027,#836,#837);
#669=AXIS2_PLACEMENT_3D('',#1029,#838,#839);
#670=AXIS2_PLACEMENT_3D('',#1030,#840,#841);
#671=AXIS2_PLACEMENT_3D('',#1031,#842,#843);
#672=AXIS2_PLACEMENT_3D('',#1033,#844,#845);
#673=AXIS2_PLACEMENT_3D('',#1035,#846,#847);
#674=AXIS2_PLACEMENT_3D('',#1036,#848,#849);
#675=AXIS2_PLACEMENT_3D('',#1037,#850,#851);
#676=AXIS2_PLACEMENT_3D('',#1039,#852,#853);
#677=AXIS2_PLACEMENT_3D('',#1041,#854,#855);
#678=AXIS2_PLACEMENT_3D('',#1042,#856,#857);
#679=AXIS2_PLACEMENT_3D('',#1043,#858,#859);
#680=AXIS2_PLACEMENT_3D('',#1045,#860,#861);
#681=AXIS2_PLACEMENT_3D('',#1047,#862,#863);
#682=AXIS2_PLACEMENT_3D('',#1048,#864,#865);
#683=AXIS2_PLACEMENT_3D('',#1049,#866,#867);
#684=AXIS2_PLACEMENT_3D('',#1051,#868,#869);
#685=AXIS2_PLACEMENT_3D('',#1053,#870,#871);
#686=AXIS2_PLACEMENT_3D('',#1054,#872,#873);
#687=AXIS2_PLACEMENT_3D('',#1055,#874,#875);
#688=AXIS2_PLACEMENT_3D('',#1057,#876,#877);
#689=AXIS2_PLACEMENT_3D('',#1059,#878,#879);
#690=AXIS2_PLACEMENT_3D('',#1060,#880,#881);
#691=AXIS2_PLACEMENT_3D('',#1061,#882,#883);
#692=AXIS2_PLACEMENT_3D('',#1063,#884,#885);
#693=AXIS2_PLACEMENT_3D('',#1065,#886,#887);
#694=AXIS2_PLACEMENT_3D('',#1066,#888,#889);
#695=AXIS2_PLACEMENT_3D('',#1067,#890,#891);
#696=AXIS2_PLACEMENT_3D('',#1069,#892,#893);
#697=AXIS2_PLACEMENT_3D('',#1071,#894,#895);
#698=AXIS2_PLACEMENT_3D('',#1072,#896,#897);
#699=AXIS2_PLACEMENT_3D('',#1073,#898,#899);
#700=AXIS2_PLACEMENT_3D('',#1074,#900,#901);
#701=AXIS2_PLACEMENT_3D('',#1075,#902,#903);
#702=AXIS2_PLACEMENT_3D('',#1076,#904,#905);
#703=AXIS2_PLACEMENT_3D('',#1077,#906,#907);
#704=AXIS2_PLACEMENT_3D('',#1078,#908,#909);
#705=AXIS2_PLACEMENT_3D('',#1079,#910,#911);
#706=AXIS2_PLACEMENT_3D('',#1080,#912,#913);
#707=AXIS2_PLACEMENT_3D('',#1081,#914,#915);
#708=AXIS2_PLACEMENT_3D('',#1082,#916,#917);
#709=AXIS2_PLACEMENT_3D('',#1083,#918,#919);
#710=AXIS2_PLACEMENT_3D('',#1084,#920,#921);
#711=AXIS2_PLACEMENT_3D('',#1085,#922,#923);
#712=AXIS2_PLACEMENT_3D('',#1086,#924,#925);
#713=AXIS2_PLACEMENT_3D('',#1087,#926,#927);
#714=DIRECTION('',(0.,0.,1.));
#715=DIRECTION('',(1.,0.,0.));
#716=DIRECTION('',(0.,0.,-1.));
#717=DIRECTION('',(-1.,0.,0.));
#718=DIRECTION('',(0.,0.,1.));
#719=DIRECTION('',(1.,0.,0.));
#720=DIRECTION('',(0.,0.,1.));
#721=DIRECTION('',(1.,0.,0.));
#722=DIRECTION('',(0.,0.,1.));
#723=DIRECTION('',(1.,0.,0.));
#724=DIRECTION('',(0.,0.,1.));
#725=DIRECTION('',(1.,0.,0.));
#726=DIRECTION('',(0.,0.,1.));
#727=DIRECTION('',(1.,0.,0.));
#728=DIRECTION('',(0.,0.,1.));
#729=DIRECTION('',(1.,0.,0.));
#730=DIRECTION('',(0.,0.,1.));
#731=DIRECTION('',(1.,0.,0.));
#732=DIRECTION('',(0.,0.,1.));
#733=DIRECTION('',(1.,0.,0.));
#734=DIRECTION('',(0.,0.,1.));
#735=DIRECTION('',(1.,0.,0.));
#736=DIRECTION('',(0.,0.,1.));
#737=DIRECTION('',(1.,0.,0.));
#738=DIRECTION('',(0.,0.,1.));
#739=DIRECTION('',(1.,0.,0.));
#740=DIRECTION('',(0.,0.,1.));
#741=DIRECTION('',(1.,0.,0.));
#742=DIRECTION('',(0.,0.,1.));
#743=DIRECTION('',(1.,0.,0.));
#744=DIRECTION('',(0.,0.,1.));
#745=DIRECTION('',(1.,0.,0.));
#746=DIRECTION('',(0.,0.,1.));
#747=DIRECTION('',(1.,0.,0.));
#748=DIRECTION('',(0.,0.,1.));
#749=DIRECTION('',(1.,0.,0.));
#750=DIRECTION('',(0.,0.,1.));
#751=DIRECTION('',(1.,0.,0.));
#752=DIRECTION('',(0.,0.,1.));
#753=DIRECTION('',(1.,0.,0.));
#754=DIRECTION('',(0.,0.,1.));
#755=DIRECTION('',(1.,0.,0.));
#756=DIRECTION('',(0.,0.,1.));
#757=DIRECTION('',(1.,0.,0.));
#758=DIRECTION('',(0.,0.,1.));
#759=DIRECTION('',(1.,0.,0.));
#760=DIRECTION('',(0.,0.,1.));
#761=DIRECTION('',(1.,0.,0.));
#762=DIRECTION('',(0.,0.,1.));
#763=DIRECTION('',(1.,0.,0.));
#764=DIRECTION('',(0.,0.,1.));
#765=DIRECTION('',(1.,0.,0.));
#766=DIRECTION('',(0.,0.,1.));
#767=DIRECTION('',(1.,0.,0.));
#768=DIRECTION('',(0.,0.,1.));
#769=DIRECTION('',(1.,0.,0.));
#770=DIRECTION('',(0.,0.,1.));
#771=DIRECTION('',(1.,0.,0.));
#772=DIRECTION('',(0.,0.,1.));
#773=DIRECTION('',(1.,0.,0.));
#774=DIRECTION('',(0.,0.,1.));
#775=DIRECTION('',(1.,0.,0.));
#776=DIRECTION('',(0.,0.,1.));
#777=DIRECTION('',(1.,0.,0.));
#778=DIRECTION('',(0.,0.,1.));
#779=DIRECTION('',(1.,0.,0.));
#780=DIRECTION('',(0.,0.,1.));
#781=DIRECTION('',(1.,0.,0.));
#782=DIRECTION('',(0.,0.,1.));
#783=DIRECTION('',(1.,0.,0.));
#784=DIRECTION('',(0.,0.,1.));
#785=DIRECTION('',(1.,0.,0.));
#786=DIRECTION('',(0.,0.,1.));
#787=DIRECTION('',(1.,0.,0.));
#788=DIRECTION('',(0.,0.,1.));
#789=DIRECTION('',(1.,0.,0.));
#790=DIRECTION('',(0.,0.,1.));
#791=DIRECTION('',(1.,0.,0.));
#792=DIRECTION('',(0.,0.,1.));
#793=DIRECTION('',(1.,0.,0.));
#794=DIRECTION('',(0.,0.,1.));
#795=DIRECTION('',(1.,0.,0.));
#796=DIRECTION('',(0.,0.,1.));
#797=DIRECTION('',(1.,0.,0.));
#798=DIRECTION('',(0.,0.,1.));
#799=DIRECTION('',(1.,0.,0.));
#800=DIRECTION('',(0.,0.,1.));
#801=DIRECTION('',(1.,0.,0.));
#802=DIRECTION('',(0.,0.,1.));
#803=DIRECTION('',(1.,0.,0.));
#804=DIRECTION('',(0.,0.,1.));
#805=DIRECTION('',(1.,0.,0.));
#806=DIRECTION('',(0.,0.,1.));
#807=DIRECTION('',(1.,0.,0.));
#808=DIRECTION('',(0.,0.,1.));
#809=DIRECTION('',(1.,0.,0.));
#810=DIRECTION('',(0.,0.,1.));
#811=DIRECTION('',(1.,0.,0.));
#812=DIRECTION('',(0.,0.,1.));
#813=DIRECTION('',(1.,0.,0.));
#814=DIRECTION('',(0.,0.,1.));
#815=DIRECTION('',(1.,0.,0.));
#816=DIRECTION('',(0.,0.,1.));
#817=DIRECTION('',(1.,0.,0.));
#818=DIRECTION('',(0.,0.,1.));
#819=DIRECTION('',(1.,0.,0.));
#820=DIRECTION('',(0.,0.,1.));
#821=DIRECTION('',(1.,0.,0.));
#822=DIRECTION('',(0.,0.,1.));
#823=DIRECTION('',(1.,0.,0.));
#824=DIRECTION('',(0.,0.,1.));
#825=DIRECTION('',(1.,0.,0.));
#826=DIRECTION('',(0.,0.,1.));
#827=DIRECTION('',(1.,0.,0.));
#828=DIRECTION('',(0.,0.,1.));
#829=DIRECTION('',(1.,0.,0.));
#830=DIRECTION('',(0.,0.,1.));
#831=DIRECTION('',(1.,0.,0.));
#832=DIRECTION('',(0.,0.,-1.));
#833=DIRECTION('',(-1.,0.,0.));
#834=DIRECTION('',(0.,0.,1.));
#835=DIRECTION('',(1.,0.,0.));
#836=DIRECTION('',(0.,0.,1.));
#837=DIRECTION('',(1.,0.,0.));
#838=DIRECTION('',(0.,0.,1.));
#839=DIRECTION('',(1.,0.,0.));
#840=DIRECTION('',(0.,0.,-1.));
#841=DIRECTION('',(-1.,0.,0.));
#842=DIRECTION('',(0.,0.,1.));
#843=DIRECTION('',(1.,0.,0.));
#844=DIRECTION('',(0.,0.,1.));
#845=DIRECTION('',(1.,0.,0.));
#846=DIRECTION('',(0.,0.,1.));
#847=DIRECTION('',(1.,0.,0.));
#848=DIRECTION('',(0.,0.,-1.));
#849=DIRECTION('',(-1.,0.,0.));
#850=DIRECTION('',(0.,0.,1.));
#851=DIRECTION('',(1.,0.,0.));
#852=DIRECTION('',(0.,0.,1.));
#853=DIRECTION('',(1.,0.,0.));
#854=DIRECTION('',(0.,0.,1.));
#855=DIRECTION('',(1.,0.,0.));
#856=DIRECTION('',(0.,0.,-1.));
#857=DIRECTION('',(-1.,0.,0.));
#858=DIRECTION('',(0.,0.,1.));
#859=DIRECTION('',(1.,0.,0.));
#860=DIRECTION('',(0.,0.,1.));
#861=DIRECTION('',(1.,0.,0.));
#862=DIRECTION('',(0.,0.,1.));
#863=DIRECTION('',(1.,0.,0.));
#864=DIRECTION('',(0.,0.,-1.));
#865=DIRECTION('',(-1.,0.,0.));
#866=DIRECTION('',(0.,0.,1.));
#867=DIRECTION('',(1.,0.,0.));
#868=DIRECTION('',(0.,0.,1.));
#869=DIRECTION('',(1.,0.,0.));
#870=DIRECTION('',(0.,0.,1.));
#871=DIRECTION('',(1.,0.,0.));
#872=DIRECTION('',(0.,0.,-1.));
#873=DIRECTION('',(-1.,0.,0.));
#874=DIRECTION('',(0.,0.,1.));
#875=DIRECTION('',(1.,0.,0.));
#876=DIRECTION('',(0.,0.,1.));
#877=DIRECTION('',(1.,0.,0.));
#878=DIRECTION('',(0.,0.,1.));
#879=DIRECTION('',(1.,0.,0.));
#880=DIRECTION('',(0.,0.,-1.));
#881=DIRECTION('',(-1.,0.,0.));
#882=DIRECTION('',(0.,0.,1.));
#883=DIRECTION('',(1.,0.,0.));
#884=DIRECTION('',(0.,0.,1.));
#885=DIRECTION('',(1.,0.,0.));
#886=DIRECTION('',(0.,0.,1.));
#887=DIRECTION('',(1.,0.,0.));
#888=DIRECTION('',(0.,0.,-1.));
#889=DIRECTION('',(-1.,0.,0.));
#890=DIRECTION('',(0.,0.,1.));
#891=DIRECTION('',(1.,0.,0.));
#892=DIRECTION('',(0.,0.,1.));
#893=DIRECTION('',(1.,0.,0.));
#894=DIRECTION('',(0.,0.,1.));
#895=DIRECTION('',(1.,0.,0.));
#896=DIRECTION('',(0.,0.,1.));
#897=DIRECTION('',(1.,0.,0.));
#898=DIRECTION('',(0.,0.,1.));
#899=DIRECTION('',(1.,0.,0.));
#900=DIRECTION('',(0.,0.,1.));
#901=DIRECTION('',(1.,0.,0.));
#902=DIRECTION('',(0.,0.,1.));
#903=DIRECTION('',(1.,0.,0.));
#904=DIRECTION('',(0.,0.,1.));
#905=DIRECTION('',(1.,0.,0.));
#906=DIRECTION('',(0.,0.,1.));
#907=DIRECTION('',(1.,0.,0.));
#908=DIRECTION('',(0.,0.,1.));
#909=DIRECTION('',(1.,0.,0.));
#910=DIRECTION('',(0.,0.,1.));
#911=DIRECTION('',(1.,0.,0.));
#912=DIRECTION('',(0.,0.,1.));
#913=DIRECTION('',(1.,0.,0.));
#914=DIRECTION('',(0.,0.,1.));
#915=DIRECTION('',(1.,0.,0.));
#916=DIRECTION('',(0.,0.,1.));
#917=DIRECTION('',(1.,0.,0.));
#918=DIRECTION('',(0.,0.,1.));
#919=DIRECTION('',(1.,0.,0.));
#920=DIRECTION('',(0.,0.,1.));
#921=DIRECTION('',(1.,0.,0.));
#922=DIRECTION('',(0.,0.,1.));
#923=DIRECTION('',(1.,0.,0.));
#924=DIRECTION('',(0.,0.,1.));
#925=DIRECTION('',(1.,0.,0.));
#926=DIRECTION('',(0.,0.,1.));
#927=DIRECTION('',(1.,0.,0.));
#928=CARTESIAN_POINT('',(0.,0.,0.));
#929=CARTESIAN_POINT('',(0.,5.20474889637625E-19,0.006));
#930=CARTESIAN_POINT('',(0.,5.20474889637625E-19,0.001));
#931=CARTESIAN_POINT('',(0.0085,5.20474889637625E-19,0.001));
#932=CARTESIAN_POINT('',(0.,5.20474889637625E-19,0.006));
#933=CARTESIAN_POINT('',(0.0085,5.20474889637625E-19,0.006));
#934=CARTESIAN_POINT('',(0.,0.,0.006));
#935=CARTESIAN_POINT('',(-0.024,4.62304166678126E-19,0.006));
#936=CARTESIAN_POINT('',(-0.01545,4.62304166678126E-19,0.006));
#937=CARTESIAN_POINT('',(-0.0169705627484771,-0.0169705627484771,0.006));
#938=CARTESIAN_POINT('',(-0.00842056274847715,-0.0169705627484771,0.006));
#939=CARTESIAN_POINT('',(-1.93188032565495E-18,-0.024,0.006));
#940=CARTESIAN_POINT('',(0.00855,-0.024,0.006));
#941=CARTESIAN_POINT('',(0.0169705627484771,-0.0169705627484771,0.006));
#942=CARTESIAN_POINT('',(0.0255205627484772,-0.0169705627484771,0.006));
#943=CARTESIAN_POINT('',(0.024,-3.40145648463177E-18,0.006));
#944=CARTESIAN_POINT('',(0.03255,-3.40145648463177E-18,0.006));
#945=CARTESIAN_POINT('',(0.0169705627484771,0.0169705627484771,0.006));
#946=CARTESIAN_POINT('',(0.0255205627484772,0.0169705627484771,0.006));
#947=CARTESIAN_POINT('',(4.8710326436086E-18,0.024,0.006));
#948=CARTESIAN_POINT('',(0.00855000000000001,0.024,0.006));
#949=CARTESIAN_POINT('',(-0.0169705627484771,0.0169705627484771,0.006));
#950=CARTESIAN_POINT('',(-0.00842056274847715,0.0169705627484771,0.006));
#951=CARTESIAN_POINT('',(0.,2.29621274840128E-18,0.006));
#952=CARTESIAN_POINT('',(0.0345,2.29621274840128E-18,0.006));
#953=CARTESIAN_POINT('',(0.,0.,0.));
#954=CARTESIAN_POINT('',(-0.024,2.47990976827339E-19,0.));
#955=CARTESIAN_POINT('',(-0.01895,2.47990976827339E-19,0.));
#956=CARTESIAN_POINT('',(-0.0169705627484771,0.0169705627484771,0.));
#957=CARTESIAN_POINT('',(-0.0119205627484772,0.0169705627484771,0.));
#958=CARTESIAN_POINT('',(4.65671945375781E-18,0.024,0.));
#959=CARTESIAN_POINT('',(0.00505,0.024,0.));
#960=CARTESIAN_POINT('',(0.0169705627484771,0.0169705627484771,0.));
#961=CARTESIAN_POINT('',(0.0220205627484771,0.0169705627484771,0.));
#962=CARTESIAN_POINT('',(0.024,-3.18714329478098E-18,0.));
#963=CARTESIAN_POINT('',(0.02905,-3.18714329478098E-18,0.));
#964=CARTESIAN_POINT('',(0.0169705627484771,-0.0169705627484771,0.));
#965=CARTESIAN_POINT('',(0.0220205627484771,-0.0169705627484771,0.));
#966=CARTESIAN_POINT('',(-1.71756713580416E-18,-0.024,0.));
#967=CARTESIAN_POINT('',(0.00505,-0.024,0.));
#968=CARTESIAN_POINT('',(-0.0169705627484771,-0.0169705627484771,0.));
#969=CARTESIAN_POINT('',(-0.0119205627484772,-0.0169705627484771,0.));
#970=CARTESIAN_POINT('',(0.,5.20474889637625E-19,0.));
#971=CARTESIAN_POINT('',(0.0095,5.20474889637625E-19,0.));
#972=CARTESIAN_POINT('',(0.,2.29621274840128E-18,0.));
#973=CARTESIAN_POINT('',(0.0345,2.29621274840128E-18,0.));
#974=CARTESIAN_POINT('',(0.,2.29621274840128E-18,0.003));
#975=CARTESIAN_POINT('',(0.,5.20474889637625E-19,0.001));
#976=CARTESIAN_POINT('',(-0.024,4.62304166678126E-19,0.0048));
#977=CARTESIAN_POINT('',(-0.024,4.62304166678126E-19,0.005));
#978=CARTESIAN_POINT('',(-0.01645,4.62304166678126E-19,0.005));
#979=CARTESIAN_POINT('',(-0.024,4.62304166678126E-19,0.0048));
#980=CARTESIAN_POINT('',(-0.01645,4.62304166678126E-19,0.0048));
#981=CARTESIAN_POINT('',(0.,0.,0.0048));
#982=CARTESIAN_POINT('',(-0.0169705627484771,-0.0169705627484771,0.0048));
#983=CARTESIAN_POINT('',(-0.0169705627484771,-0.0169705627484771,0.005));
#984=CARTESIAN_POINT('',(-0.00942056274847715,-0.0169705627484771,0.005));
#985=CARTESIAN_POINT('',(-0.0169705627484771,-0.0169705627484771,0.0048));
#986=CARTESIAN_POINT('',(-0.00942056274847715,-0.0169705627484771,0.0048));
#987=CARTESIAN_POINT('',(0.,0.,0.0048));
#988=CARTESIAN_POINT('',(-1.93188032565495E-18,-0.024,0.0048));
#989=CARTESIAN_POINT('',(-1.93188032565495E-18,-0.024,0.005));
#990=CARTESIAN_POINT('',(0.00755,-0.024,0.005));
#991=CARTESIAN_POINT('',(-1.93188032565495E-18,-0.024,0.0048));
#992=CARTESIAN_POINT('',(0.00755,-0.024,0.0048));
#993=CARTESIAN_POINT('',(0.,0.,0.0048));
#994=CARTESIAN_POINT('',(0.0169705627484771,-0.0169705627484771,0.0048));
#995=CARTESIAN_POINT('',(0.0169705627484771,-0.0169705627484771,0.005));
#996=CARTESIAN_POINT('',(0.0245205627484772,-0.0169705627484771,0.005));
#997=CARTESIAN_POINT('',(0.0169705627484771,-0.0169705627484771,0.0048));
#998=CARTESIAN_POINT('',(0.0245205627484772,-0.0169705627484771,0.0048));
#999=CARTESIAN_POINT('',(0.,0.,0.0048));
#1000=CARTESIAN_POINT('',(0.024,-3.40145648463177E-18,0.0048));
#1001=CARTESIAN_POINT('',(0.024,-3.40145648463177E-18,0.005));
#1002=CARTESIAN_POINT('',(0.03155,-3.40145648463177E-18,0.005));
#1003=CARTESIAN_POINT('',(0.024,-3.40145648463177E-18,0.0048));
#1004=CARTESIAN_POINT('',(0.03155,-3.40145648463177E-18,0.0048));
#1005=CARTESIAN_POINT('',(0.,0.,0.0048));
#1006=CARTESIAN_POINT('',(0.0169705627484771,0.0169705627484771,0.0048));
#1007=CARTESIAN_POINT('',(0.0169705627484771,0.0169705627484771,0.005));
#1008=CARTESIAN_POINT('',(0.0245205627484772,0.0169705627484771,0.005));
#1009=CARTESIAN_POINT('',(0.0169705627484771,0.0169705627484771,0.0048));
#1010=CARTESIAN_POINT('',(0.0245205627484772,0.0169705627484771,0.0048));
#1011=CARTESIAN_POINT('',(0.,0.,0.0048));
#1012=CARTESIAN_POINT('',(4.8710326436086E-18,0.024,0.0048));
#1013=CARTESIAN_POINT('',(4.8710326436086E-18,0.024,0.005));
#1014=CARTESIAN_POINT('',(0.00755000000000001,0.024,0.005));
#1015=CARTESIAN_POINT('',(4.8710326436086E-18,0.024,0.0048));
#1016=CARTESIAN_POINT('',(0.00755000000000001,0.024,0.0048));
#1017=CARTESIAN_POINT('',(0.,0.,0.0048));
#1018=CARTESIAN_POINT('',(-0.0169705627484771,0.0169705627484771,0.0048));
#1019=CARTESIAN_POINT('',(-0.0169705627484771,0.0169705627484771,0.005));
#1020=CARTESIAN_POINT('',(-0.00942056274847715,0.0169705627484771,0.005));
#1021=CARTESIAN_POINT('',(-0.0169705627484771,0.0169705627484771,0.0048));
#1022=CARTESIAN_POINT('',(-0.00942056274847715,0.0169705627484771,0.0048));
#1023=CARTESIAN_POINT('',(0.,0.,0.0048));
#1024=CARTESIAN_POINT('',(-0.024,2.47990976827339E-19,0.0025));
#1025=CARTESIAN_POINT('',(-0.024,2.47990976827339E-19,0.001));
#1026=CARTESIAN_POINT('',(-0.01995,2.47990976827339E-19,0.001));
#1027=CARTESIAN_POINT('',(-0.024,2.47990976827339E-19,0.0025));
#1028=CARTESIAN_POINT('',(-0.01995,2.47990976827339E-19,0.0025));
#1029=CARTESIAN_POINT('',(0.,0.,0.0025));
#1030=CARTESIAN_POINT('',(-0.0169705627484771,-0.0169705627484771,0.0025));
#1031=CARTESIAN_POINT('',(-0.0169705627484771,-0.0169705627484771,0.001));
#1032=CARTESIAN_POINT('',(-0.0129205627484772,-0.0169705627484771,0.001));
#1033=CARTESIAN_POINT('',(-0.0169705627484771,-0.0169705627484771,0.0025));
#1034=CARTESIAN_POINT('',(-0.0129205627484772,-0.0169705627484771,0.0025));
#1035=CARTESIAN_POINT('',(0.,0.,0.0025));
#1036=CARTESIAN_POINT('',(-1.71756713580416E-18,-0.024,0.0025));
#1037=CARTESIAN_POINT('',(-1.71756713580416E-18,-0.024,0.001));
#1038=CARTESIAN_POINT('',(0.00405,-0.024,0.001));
#1039=CARTESIAN_POINT('',(-1.71756713580416E-18,-0.024,0.0025));
#1040=CARTESIAN_POINT('',(0.00405,-0.024,0.0025));
#1041=CARTESIAN_POINT('',(0.,0.,0.0025));
#1042=CARTESIAN_POINT('',(0.0169705627484771,-0.0169705627484771,0.0025));
#1043=CARTESIAN_POINT('',(0.0169705627484771,-0.0169705627484771,0.001));
#1044=CARTESIAN_POINT('',(0.0210205627484771,-0.0169705627484771,0.001));
#1045=CARTESIAN_POINT('',(0.0169705627484771,-0.0169705627484771,0.0025));
#1046=CARTESIAN_POINT('',(0.0210205627484771,-0.0169705627484771,0.0025));
#1047=CARTESIAN_POINT('',(0.,0.,0.0025));
#1048=CARTESIAN_POINT('',(0.024,-3.18714329478098E-18,0.0025));
#1049=CARTESIAN_POINT('',(0.024,-3.18714329478098E-18,0.001));
#1050=CARTESIAN_POINT('',(0.02805,-3.18714329478098E-18,0.001));
#1051=CARTESIAN_POINT('',(0.024,-3.18714329478098E-18,0.0025));
#1052=CARTESIAN_POINT('',(0.02805,-3.18714329478098E-18,0.0025));
#1053=CARTESIAN_POINT('',(0.,0.,0.0025));
#1054=CARTESIAN_POINT('',(0.0169705627484771,0.0169705627484771,0.0025));
#1055=CARTESIAN_POINT('',(0.0169705627484771,0.0169705627484771,0.001));
#1056=CARTESIAN_POINT('',(0.0210205627484771,0.0169705627484771,0.001));
#1057=CARTESIAN_POINT('',(0.0169705627484771,0.0169705627484771,0.0025));
#1058=CARTESIAN_POINT('',(0.0210205627484771,0.0169705627484771,0.0025));
#1059=CARTESIAN_POINT('',(0.,0.,0.0025));
#1060=CARTESIAN_POINT('',(4.65671945375781E-18,0.024,0.0025));
#1061=CARTESIAN_POINT('',(4.65671945375781E-18,0.024,0.001));
#1062=CARTESIAN_POINT('',(0.00405,0.024,0.001));
#1063=CARTESIAN_POINT('',(4.65671945375781E-18,0.024,0.0025));
#1064=CARTESIAN_POINT('',(0.00405,0.024,0.0025));
#1065=CARTESIAN_POINT('',(0.,0.,0.0025));
#1066=CARTESIAN_POINT('',(-0.0169705627484771,0.0169705627484771,0.0025));
#1067=CARTESIAN_POINT('',(-0.0169705627484771,0.0169705627484771,0.001));
#1068=CARTESIAN_POINT('',(-0.0129205627484772,0.0169705627484771,0.001));
#1069=CARTESIAN_POINT('',(-0.0169705627484771,0.0169705627484771,0.0025));
#1070=CARTESIAN_POINT('',(-0.0129205627484772,0.0169705627484771,0.0025));
#1071=CARTESIAN_POINT('',(0.,0.,0.0025));
#1072=CARTESIAN_POINT('',(-0.024,4.62304166678126E-19,0.005));
#1073=CARTESIAN_POINT('',(-0.0169705627484771,-0.0169705627484771,0.005));
#1074=CARTESIAN_POINT('',(-1.93188032565495E-18,-0.024,0.005));
#1075=CARTESIAN_POINT('',(0.0169705627484771,-0.0169705627484771,0.005));
#1076=CARTESIAN_POINT('',(0.024,-3.40145648463177E-18,0.005));
#1077=CARTESIAN_POINT('',(0.0169705627484771,0.0169705627484771,0.005));
#1078=CARTESIAN_POINT('',(4.8710326436086E-18,0.024,0.005));
#1079=CARTESIAN_POINT('',(-0.0169705627484771,0.0169705627484771,0.005));
#1080=CARTESIAN_POINT('',(-0.024,2.47990976827339E-19,0.001));
#1081=CARTESIAN_POINT('',(-0.0169705627484771,0.0169705627484771,0.001));
#1082=CARTESIAN_POINT('',(4.65671945375781E-18,0.024,0.001));
#1083=CARTESIAN_POINT('',(0.0169705627484771,0.0169705627484771,0.001));
#1084=CARTESIAN_POINT('',(0.024,-3.18714329478098E-18,0.001));
#1085=CARTESIAN_POINT('',(0.0169705627484771,-0.0169705627484771,0.001));
#1086=CARTESIAN_POINT('',(-1.71756713580416E-18,-0.024,0.001));
#1087=CARTESIAN_POINT('',(-0.0169705627484771,-0.0169705627484771,0.001));
#1088=MECHANICAL_DESIGN_GEOMETRIC_PRESENTATION_REPRESENTATION('',(#596),
#1089);
#1089=(
GEOMETRIC_REPRESENTATION_CONTEXT(3)
GLOBAL_UNCERTAINTY_ASSIGNED_CONTEXT((#1090))
GLOBAL_UNIT_ASSIGNED_CONTEXT((#1093,#1092,#1091))
REPRESENTATION_CONTEXT('Part 1','TOP_LEVEL_ASSEMBLY_PART')
);
#1090=UNCERTAINTY_MEASURE_WITH_UNIT(LENGTH_MEASURE(1.E-8),#1093,
'DISTANCE_ACCURACY_VALUE','Maximum Tolerance applied to model');
#1091=(
NAMED_UNIT(*)
SI_UNIT($,.STERADIAN.)
SOLID_ANGLE_UNIT()
);
#1092=(
NAMED_UNIT(*)
PLANE_ANGLE_UNIT()
SI_UNIT($,.RADIAN.)
);
#1093=(
LENGTH_UNIT()
NAMED_UNIT(*)
SI_UNIT($,.METRE.)
);
#1094=PRODUCT_DEFINITION_SHAPE('','',#1095);
#1095=PRODUCT_DEFINITION('','',#1097,#1096);
#1096=PRODUCT_DEFINITION_CONTEXT('',#1103,'design');
#1097=PRODUCT_DEFINITION_FORMATION_WITH_SPECIFIED_SOURCE('','',#1099,
 .NOT_KNOWN.);
#1098=PRODUCT_RELATED_PRODUCT_CATEGORY('','',(#1099));
#1099=PRODUCT('Part 1','Part 1','Part 1',(#1101));
#1100=PRODUCT_CATEGORY('','');
#1101=PRODUCT_CONTEXT('',#1103,'mechanical');
#1102=APPLICATION_PROTOCOL_DEFINITION('international standard',
'ap242_managed_model_based_3d_engineering',2020,#1103);
#1103=APPLICATION_CONTEXT('managed model based 3d engineering');
ENDSEC;
END-ISO-10303-21;
